<?xml version="1.0" standalone="no"?><!DOCTYPE svg PUBLIC "-//W3C//DTD SVG 1.1//EN" "http://www.w3.org/Graphics/SVG/1.1/DTD/svg11.dtd"><svg t="1768878611727" class="icon" viewBox="0 0 1024 1024" version="1.1" xmlns="http://www.w3.org/2000/svg" p-id="12125" xmlns:xlink="http://www.w3.org/1999/xlink" width="64" height="64"><path d="M644.778667 542.208C669.764267 565.418667 708.027733 580.266667 750.933333 580.266667c24.8832 0 48.196267-4.983467 68.266667-13.687467V819.2a34.133333 34.133333 0 0 1-34.133333 34.133333h-170.666667v-204.8h-204.8v204.8H238.933333a34.133333 34.133333 0 0 1-34.133333-34.133333l-0.068267-252.654933A171.963733 171.963733 0 0 0 273.066667 580.266667c42.9056 0 81.169067-14.848 106.1888-38.024534C410.5216 565.4528 458.376533 580.266667 512 580.266667c53.623467 0 101.4784-14.848 132.778667-38.058667zM580.266667 682.666667v170.666666h-136.533334v-170.666666h136.533334z m131.072-512a68.266667 68.266667 0 0 1 59.255466 34.4064l110.865067 206.506666c3.8912 10.1376 6.007467 20.923733 6.007467 32.1536 0 56.558933-53.486933 102.4-119.466667 102.4-63.6928 0-115.746133-42.734933-119.261867-96.597333L648.533333 443.733333l-0.2048 5.632C644.437333 503.296 584.9088 546.133333 512 546.133333s-132.437333-42.837333-136.328533-96.768L375.466667 443.733333l-0.2048 5.802667C371.746133 503.3984 319.6928 546.133333 256 546.133333 190.020267 546.133333 136.533333 500.292267 136.533333 443.733333c0-11.229867 2.116267-22.016 6.007467-32.119466l110.865067-206.5408A68.266667 68.266667 0 0 1 312.695467 170.666667h398.609066zM716.8 273.066667H307.2v34.133333h409.6V273.066667z" fill="#65a30d" p-id="12126"></path></svg>